<?xml version="1.0" standalone="no"?>
<!DOCTYPE svg PUBLIC "-//W3C//DTD SVG 20010904//EN"
 "http://www.w3.org/TR/2001/REC-SVG-20010904/DTD/svg10.dtd">
<svg version="1.0" xmlns="http://www.w3.org/2000/svg"
 width="1280.000000pt" height="1280.000000pt" viewBox="0 0 1280.000000 1280.000000"
 preserveAspectRatio="xMidYMid meet">
<metadata>
Created by potrace 1.14, written by Peter Selinger 2001-2017
</metadata>
<g transform="translate(0.000000,1280.000000) scale(0.100000,-0.100000)"
fill="#000000" stroke="none">
<path d="M5758 11878 l-3 -33 -222 -3 -223 -2 0 -30 0 -30 -160 0 -160 0 0
-30 0 -30 -94 0 -95 0 -3 -32 -3 -33 -127 -3 -128 -3 0 -29 0 -30 -94 0 -95 0
-3 -32 c-3 -33 -3 -33 -65 -36 -62 -3 -63 -3 -63 -32 l0 -30 -95 0 -95 0 0
-30 0 -30 -65 0 -65 0 0 -35 0 -35 -65 0 -65 0 0 -30 c0 -29 -1 -29 -62 -32
-63 -3 -63 -3 -66 -35 l-3 -33 -60 0 c-59 0 -59 0 -59 -30 0 -28 -3 -30 -35
-30 -32 0 -35 -2 -35 -30 0 -29 -1 -29 -62 -32 -63 -3 -63 -3 -66 -35 l-3 -33
-60 0 c-59 0 -59 0 -59 -30 0 -28 -3 -30 -35 -30 -33 0 -35 -2 -35 -35 l0 -35
-65 0 -65 0 0 -30 c0 -27 -3 -30 -30 -30 -27 0 -30 -3 -30 -30 0 -27 -3 -30
-29 -30 -26 0 -30 -4 -33 -32 -3 -33 -3 -33 -65 -36 -62 -3 -63 -3 -63 -32 0
-25 -4 -29 -32 -32 -29 -3 -33 -7 -36 -35 -3 -29 -7 -33 -33 -33 -26 0 -29 -3
-29 -30 0 -27 -3 -30 -30 -30 -27 0 -30 -3 -30 -29 0 -26 -4 -30 -32 -33 -29
-3 -33 -7 -36 -35 -3 -29 -7 -33 -33 -33 -25 0 -29 -4 -29 -29 0 -26 -4 -30
-32 -33 -29 -3 -33 -7 -36 -35 -3 -29 -7 -33 -33 -33 -26 0 -29 -3 -29 -30 0
-27 -3 -30 -30 -30 -27 0 -30 -3 -30 -29 0 -26 -4 -30 -32 -33 -29 -3 -33 -7
-36 -35 -3 -29 -7 -33 -33 -33 -25 0 -29 -4 -29 -29 0 -26 -4 -30 -32 -33 -29
-3 -33 -7 -36 -35 -3 -29 -7 -33 -33 -33 -26 0 -29 -3 -29 -30 0 -27 -3 -30
-30 -30 -27 0 -30 -3 -30 -29 0 -26 -4 -30 -33 -33 -32 -3 -32 -3 -35 -65 -3
-62 -3 -63 -32 -63 -25 0 -29 -4 -32 -32 -3 -29 -7 -33 -35 -36 -29 -3 -33 -7
-33 -33 0 -26 -3 -29 -30 -29 l-30 0 0 -65 0 -65 -30 0 c-27 0 -30 -3 -30 -30
0 -28 -3 -30 -35 -30 l-35 0 0 -65 0 -65 -30 0 c-27 0 -30 -3 -30 -29 0 -26
-4 -30 -33 -33 -32 -3 -32 -3 -35 -65 -3 -62 -3 -63 -32 -63 l-30 0 0 -65 0
-65 -30 0 c-29 0 -29 -1 -32 -62 -3 -63 -3 -63 -36 -66 l-32 -3 0 -65 0 -64
-30 0 c-30 0 -30 0 -30 -59 l0 -60 -32 -3 -33 -3 -3 -97 -3 -98 -29 0 -30 0 0
-95 0 -95 -30 0 -30 0 0 -95 0 -95 -35 0 -35 0 0 -95 0 -95 -30 0 -30 0 0
-159 0 -160 -33 -3 -32 -3 -3 -192 -2 -193 -30 0 -30 0 0 -610 0 -610 30 0 30
0 0 -189 0 -190 32 -3 33 -3 3 -157 3 -158 29 0 29 0 3 -97 3 -98 33 -3 32 -3
0 -95 0 -94 30 0 30 0 0 -95 0 -95 30 0 30 0 0 -95 0 -95 35 0 35 0 0 -65 0
-65 30 0 30 0 0 -65 0 -65 35 0 35 0 0 -65 0 -65 30 0 30 0 0 -60 0 -60 30 0
30 0 0 -65 0 -65 35 0 c33 0 35 -2 35 -35 0 -32 2 -35 30 -35 30 0 30 0 30
-59 l0 -60 33 -3 c28 -3 32 -7 35 -36 3 -28 7 -32 33 -32 l29 0 0 -65 0 -65
30 0 c27 0 30 -3 30 -30 0 -28 3 -30 35 -30 32 0 35 -2 35 -30 0 -27 3 -30 30
-30 l30 0 0 -64 0 -65 33 -3 c28 -3 32 -7 35 -35 3 -29 7 -33 33 -33 26 0 29
-3 29 -30 0 -27 3 -30 30 -30 27 0 30 -3 30 -29 0 -26 4 -30 33 -33 28 -3 32
-7 35 -36 3 -28 7 -32 33 -32 25 0 29 -4 29 -29 0 -26 4 -30 33 -33 28 -3 32
-7 35 -35 3 -29 7 -33 33 -33 26 0 29 -3 29 -30 0 -27 3 -30 30 -30 27 0 30
-3 30 -29 0 -26 4 -30 33 -33 28 -3 32 -7 35 -35 3 -29 7 -33 33 -33 25 0 29
-4 29 -29 0 -26 4 -30 33 -33 28 -3 32 -7 35 -35 3 -29 7 -33 33 -33 26 0 29
-3 29 -30 0 -27 3 -30 30 -30 27 0 30 -3 30 -29 0 -26 4 -30 33 -33 28 -3 32
-7 35 -36 l3 -32 65 0 64 0 0 -30 c0 -27 3 -30 30 -30 28 0 30 -3 30 -35 0
-32 2 -35 30 -35 27 0 30 -3 30 -30 l0 -30 65 0 65 0 0 -29 c0 -26 4 -30 33
-33 28 -3 32 -7 35 -35 l3 -33 60 0 c59 0 59 0 59 -30 l0 -30 64 0 65 0 3 -33
c3 -28 7 -32 36 -35 28 -3 32 -7 32 -33 0 -29 0 -29 60 -29 l60 0 0 -30 0 -30
65 0 65 0 0 -35 0 -35 65 0 65 0 0 -30 0 -30 65 0 65 0 0 -35 0 -35 95 0 95 0
0 -30 0 -30 65 0 65 0 0 -30 0 -30 95 0 95 0 0 -35 0 -35 130 0 130 0 0 -30 0
-30 95 0 95 0 0 -35 0 -35 160 0 160 0 0 -30 0 -30 225 0 225 0 0 -30 0 -30
610 0 610 0 0 30 0 30 225 0 225 0 0 30 0 29 158 3 157 3 3 33 3 32 95 0 94 0
0 30 0 29 128 3 127 3 3 33 3 32 95 0 94 0 0 30 0 30 65 0 65 0 0 30 0 29 93
3 92 3 3 32 3 33 65 0 64 0 0 30 c0 30 0 30 59 30 l60 0 3 32 c3 33 3 33 66
36 61 3 62 3 62 32 l0 30 65 0 65 0 0 30 c0 27 3 30 29 30 26 0 30 4 33 33 3
32 3 32 66 35 61 3 62 3 62 32 l0 30 65 0 65 0 0 35 c0 32 2 35 30 35 27 0 30
3 30 30 l0 30 65 0 65 0 0 29 c0 26 4 30 33 33 28 3 32 7 35 36 3 28 7 32 33
32 26 0 29 3 29 30 l0 30 65 0 65 0 0 35 c0 32 2 35 30 35 27 0 30 3 30 30 0
28 3 30 35 30 32 0 35 2 35 30 0 27 3 30 30 30 28 0 30 3 30 35 0 32 2 35 30
35 27 0 30 3 30 30 0 28 3 30 35 30 33 0 35 2 35 35 0 32 2 35 30 35 27 0 30
3 30 30 0 28 3 30 35 30 32 0 35 2 35 30 0 27 3 30 30 30 28 0 30 3 30 35 0
32 2 35 30 35 27 0 30 3 30 30 0 28 3 30 35 30 33 0 35 2 35 35 0 32 2 35 30
35 27 0 30 3 30 30 0 28 3 30 35 30 32 0 35 2 35 30 0 27 3 30 30 30 28 0 30
3 30 35 0 32 2 35 30 35 29 0 29 1 32 63 3 62 3 62 36 65 28 3 32 7 32 33 0
26 3 29 30 29 27 0 30 3 30 29 0 26 4 30 33 33 32 3 32 3 35 66 3 61 3 62 32
62 28 0 30 3 30 35 0 32 2 35 30 35 30 0 30 0 30 59 l0 60 33 3 c28 3 32 7 35
36 3 28 7 32 32 32 29 0 29 1 32 62 3 63 3 63 36 66 l32 3 0 60 c0 59 0 59 30
59 l30 0 0 65 0 65 30 0 30 0 0 65 0 65 35 0 35 0 0 65 0 65 30 0 30 0 0 95 0
95 35 0 35 0 0 95 0 95 30 0 30 0 0 95 0 95 30 0 29 0 3 98 3 97 33 3 32 3 0
160 0 159 30 0 30 0 0 190 0 190 35 0 35 0 0 609 0 610 -32 3 -33 3 -3 193 -2
192 -30 0 -30 0 0 160 0 160 -35 0 -35 0 0 95 0 95 -30 0 -30 0 0 95 0 95 -30
0 -30 0 0 94 0 95 -32 3 -33 3 -3 98 -3 97 -29 0 c-30 0 -30 0 -30 59 l0 60
-32 3 c-33 3 -33 3 -36 66 -3 61 -3 62 -32 62 l-30 0 0 65 0 65 -30 0 c-29 0
-29 1 -32 63 -3 62 -3 62 -35 65 l-33 3 0 65 0 64 -30 0 c-27 0 -30 3 -30 30
0 28 -3 30 -35 30 l-35 0 0 65 0 65 -30 0 c-27 0 -30 3 -30 30 0 27 -3 30 -30
30 l-30 0 0 65 0 65 -35 0 c-32 0 -35 2 -35 30 0 27 -3 30 -30 30 -28 0 -30 3
-30 35 0 33 -2 35 -35 35 l-35 0 0 65 0 65 -30 0 c-27 0 -30 3 -30 30 0 27 -3
30 -30 30 -27 0 -30 3 -30 29 0 26 -4 30 -32 33 -29 3 -33 7 -36 36 -3 28 -7
32 -33 32 -25 0 -29 4 -29 29 0 26 -4 30 -32 33 -29 3 -33 7 -36 36 -3 28 -7
32 -33 32 -26 0 -29 3 -29 30 0 27 -3 30 -30 30 -27 0 -30 3 -30 29 0 26 -4
30 -32 33 -29 3 -33 7 -36 36 -3 28 -7 32 -33 32 -25 0 -29 4 -29 29 0 26 -4
30 -32 33 -29 3 -33 7 -36 36 -3 28 -7 32 -33 32 -26 0 -29 3 -29 30 0 27 -3
30 -30 30 -27 0 -30 3 -30 29 0 26 -4 30 -32 33 -29 3 -33 7 -36 36 -3 28 -7
32 -33 32 -26 0 -29 3 -29 30 l0 30 -65 0 -65 0 0 35 c0 32 -2 35 -30 35 -27
0 -30 3 -30 30 0 28 -3 30 -35 30 -32 0 -35 2 -35 30 0 29 -1 29 -62 32 -63 3
-63 3 -66 36 -3 28 -7 32 -33 32 -26 0 -29 3 -29 30 l0 30 -65 0 -65 0 0 35 0
35 -65 0 -65 0 0 30 c0 27 -3 30 -30 30 -27 0 -30 3 -30 30 0 29 -1 29 -62 32
-63 3 -63 3 -66 36 l-3 32 -65 0 -64 0 0 30 c0 30 0 30 -59 30 l-60 0 -3 33
c-3 32 -3 32 -65 35 -62 3 -63 3 -63 32 l0 30 -95 0 -95 0 0 30 0 30 -65 0
-65 0 0 35 0 35 -95 0 -95 0 0 30 0 30 -130 0 -130 0 0 35 0 35 -95 0 -95 0 0
30 0 30 -160 0 -160 0 0 30 0 30 -225 0 -225 0 0 35 0 35 -609 0 -610 0 -3
-32z m-708 -263 c0 -20 -5 -25 -25 -25 -20 0 -25 5 -25 25 0 20 5 25 25 25 20
0 25 -5 25 -25z m2050 -255 c0 -25 -4 -30 -25 -30 -21 0 -25 5 -25 30 0 25 4
30 25 30 21 0 25 -5 25 -30z m1951 -230 c24 0 29 -4 29 -25 0 -21 -5 -25 -30
-25 -28 0 -30 -3 -30 -35 0 -30 -3 -35 -24 -35 -21 0 -25 6 -28 33 -3 28 -7
32 -35 35 -27 3 -33 8 -33 27 0 19 6 24 33 27 26 2 33 8 35 30 2 19 10 28 25
30 18 2 23 -3 25 -29 3 -29 7 -33 33 -33z m-5091 -286 c0 -19 -5 -24 -25 -24
-21 0 -25 5 -25 29 0 25 3 28 25 23 18 -3 25 -11 25 -28z m-1210 -321 c0 -30
3 -33 30 -33 25 0 30 -4 30 -25 0 -21 -5 -25 -30 -25 -28 0 -30 -3 -30 -35 0
-32 -2 -35 -30 -35 -28 0 -30 3 -30 35 0 32 -2 35 -30 35 -25 0 -30 4 -30 24
0 21 6 25 33 28 29 3 32 6 29 33 -3 27 0 30 28 30 27 0 30 -3 30 -32z m3200
-63 c0 -27 3 -30 30 -30 27 0 30 -3 30 -30 0 -27 -3 -30 -30 -30 -27 0 -30 -3
-30 -30 0 -27 -3 -30 -30 -30 -27 0 -30 3 -30 30 0 27 -3 30 -30 30 -27 0 -30
3 -30 30 0 27 3 30 30 30 27 0 30 3 30 30 0 27 3 30 30 30 27 0 30 -3 30 -30z
m4542 -512 c2 -28 8 -34 31 -36 21 -3 27 -9 27 -28 0 -20 -5 -24 -30 -24 -27
0 -30 -3 -30 -30 0 -25 -4 -30 -25 -30 -21 0 -25 5 -25 30 0 28 -3 30 -35 30
-30 0 -35 3 -35 24 0 21 6 25 33 28 28 3 32 7 35 36 3 26 8 32 27 32 19 0 24
-6 27 -32z m-2562 -313 c0 -20 -5 -25 -25 -25 -20 0 -25 5 -25 25 0 20 5 25
25 25 20 0 25 -5 25 -25z m2110 -390 c0 -20 -5 -25 -25 -25 -20 0 -25 5 -25
25 0 20 5 25 25 25 20 0 25 -5 25 -25z m-5180 -250 c0 -20 -5 -25 -25 -25 -20
0 -25 5 -25 25 0 20 5 25 25 25 20 0 25 -5 25 -25z m-3270 -195 c0 -25 -4 -30
-25 -30 -21 0 -25 5 -25 30 0 25 4 30 25 30 21 0 25 -5 25 -30z m6532 -322 c3
-29 7 -33 36 -36 26 -3 32 -7 32 -28 0 -21 -5 -24 -35 -24 -32 0 -35 -2 -35
-30 0 -25 -4 -30 -25 -30 -21 0 -25 5 -25 30 0 27 -3 30 -30 30 -25 0 -30 4
-30 25 0 21 5 25 30 25 28 0 30 3 30 35 0 30 3 35 24 35 21 0 25 -6 28 -32z
m-5182 -63 c0 -20 -5 -25 -25 -25 -20 0 -25 5 -25 25 0 20 5 25 25 25 20 0 25
-5 25 -25z m130 -515 c0 -27 3 -30 30 -30 27 0 30 -3 30 -30 0 -27 -3 -30 -30
-30 -27 0 -30 -3 -30 -30 0 -27 -3 -30 -30 -30 -27 0 -30 3 -30 30 0 27 -3 30
-30 30 -27 0 -30 3 -30 30 0 27 3 30 30 30 27 0 30 3 30 30 0 27 3 30 30 30
27 0 30 -3 30 -30z m8000 -60 c0 -27 -3 -30 -30 -30 -27 0 -30 3 -30 30 0 27
3 30 30 30 27 0 30 -3 30 -30z m-1920 -65 c0 -21 -5 -25 -30 -25 -25 0 -30 4
-30 25 0 21 5 25 30 25 25 0 30 -4 30 -25z m-4540 -575 l0 -290 30 0 30 0 0
-94 0 -95 33 -3 32 -3 3 -92 c3 -91 3 -92 30 -95 21 -2 28 -9 32 -33 4 -25 10
-30 34 -30 l30 -1 -3 -61 -2 -62 33 -3 c29 -3 33 -7 36 -35 3 -29 7 -33 33
-33 25 0 29 -4 29 -29 0 -26 4 -30 33 -33 28 -3 32 -7 35 -36 3 -30 6 -33 30
-30 24 3 27 -1 30 -29 3 -28 7 -32 35 -35 28 -3 32 -6 29 -30 -3 -24 0 -27 30
-30 29 -3 33 -7 36 -35 l3 -33 65 0 64 0 0 -29 c0 -25 4 -30 27 -33 22 -2 29
-9 33 -33 l5 -30 90 -1 90 -2 3 -31 3 -31 65 0 64 0 0 -30 0 -29 128 -3 127
-3 3 -32 3 -33 379 0 379 0 3 33 3 32 128 3 127 3 0 29 0 30 64 0 65 0 3 31 3
31 90 2 90 1 5 30 c4 24 11 31 33 33 23 3 27 8 27 33 l0 29 64 0 65 0 3 33 c3
28 7 32 36 35 30 3 33 6 30 30 -3 24 1 27 29 30 28 3 32 7 35 35 3 28 6 32 30
29 24 -3 27 0 30 30 3 29 7 33 36 36 28 3 32 7 32 33 0 25 4 29 29 29 26 0 30
4 33 33 3 28 7 32 36 35 l33 3 -2 62 -3 61 30 1 c24 0 30 5 34 30 4 24 11 31
32 33 27 3 27 4 30 95 l3 92 33 3 32 3 0 95 0 94 30 0 30 0 0 291 0 290 33 -3
32 -3 3 -92 c3 -92 3 -92 30 -95 27 -3 27 -4 32 -98 l5 -95 28 0 27 -1 0 -384
0 -384 -27 -1 -28 0 -5 -95 c-5 -94 -5 -95 -32 -98 -27 -3 -27 -3 -30 -95 l-3
-92 -32 -3 c-29 -3 -33 -7 -33 -33 0 -25 -4 -29 -30 -29 -29 0 -29 -1 -32 -62
-3 -61 -4 -63 -33 -68 -25 -4 -30 -10 -30 -35 -1 -26 -4 -29 -30 -30 -30 0
-30 -1 -33 -62 -3 -62 -3 -63 -32 -63 -25 0 -29 -4 -32 -32 -3 -29 -7 -33 -35
-36 -29 -3 -33 -7 -33 -33 0 -25 -4 -29 -29 -29 -26 0 -30 -4 -33 -32 -3 -31
-3 -31 -63 -32 -58 -1 -60 -2 -65 -31 -4 -24 -11 -31 -33 -33 -23 -3 -27 -8
-27 -33 l0 -29 -64 0 -65 0 -3 -32 c-3 -29 -7 -33 -36 -36 -30 -3 -33 -6 -30
-30 l3 -27 -97 -3 -97 -3 -3 -31 c-3 -31 -3 -31 -63 -32 -60 -1 -60 -1 -60
-31 l-1 -30 -159 -5 -160 -5 0 -25 0 -25 -385 0 -385 0 0 25 0 25 -160 5 -159
5 -1 30 c0 30 0 30 -60 31 -60 1 -60 1 -63 32 l-3 31 -97 3 -97 3 3 27 c3 24
0 27 -30 30 -29 3 -33 7 -36 36 l-3 32 -65 0 -64 0 0 29 c0 25 -4 30 -27 33
-22 2 -29 9 -33 33 -5 29 -7 30 -65 31 -60 1 -60 1 -63 32 -3 28 -7 32 -33 32
-25 0 -29 4 -29 29 0 26 -4 30 -32 33 -29 3 -33 7 -36 36 -3 28 -7 32 -32 32
-29 0 -29 1 -32 63 -3 61 -3 62 -33 62 -26 1 -29 4 -30 30 0 25 -5 31 -30 35
-29 5 -30 7 -33 68 -3 61 -3 62 -32 62 -26 0 -30 4 -30 29 0 26 -4 30 -32 33
l-33 3 -3 92 c-3 92 -3 92 -30 95 -27 3 -27 4 -32 98 l-5 95 -28 0 -27 1 0
384 0 384 27 1 28 0 5 95 c5 95 5 95 33 98 l27 3 0 88 c0 48 3 91 7 94 3 4 19
7 35 7 l28 0 0 -290z m-3720 -65 c0 -20 -5 -25 -25 -25 -20 0 -25 5 -25 25 0
20 5 25 25 25 20 0 25 -5 25 -25z m10110 -60 c0 -20 -5 -25 -25 -25 -20 0 -25
5 -25 25 0 20 5 25 25 25 20 0 25 -5 25 -25z m-830 -135 c0 -27 3 -30 30 -30
27 0 30 -3 30 -30 0 -27 -3 -30 -30 -30 -27 0 -30 -3 -30 -30 0 -25 -4 -30
-25 -30 -21 0 -25 5 -25 30 0 28 -3 30 -35 30 -32 0 -35 2 -35 30 0 28 3 30
35 30 32 0 35 2 35 30 0 25 4 30 25 30 21 0 25 -5 25 -30z m-7740 -380 c0 -27
-3 -30 -30 -30 -27 0 -30 3 -30 30 0 27 3 30 30 30 27 0 30 -3 30 -30z m1280
0 c0 -27 -3 -30 -30 -30 -27 0 -30 3 -30 30 0 27 3 30 30 30 27 0 30 -3 30
-30z m8190 -705 c0 -20 -5 -25 -25 -25 -20 0 -25 5 -25 25 0 20 5 25 25 25 20
0 25 -5 25 -25z m-8830 -260 c0 -32 2 -35 30 -35 25 0 30 -4 30 -25 0 -21 -5
-25 -30 -25 -27 0 -30 -3 -30 -32 0 -30 -3 -33 -30 -33 -27 0 -30 3 -30 33 0
29 -3 32 -30 32 -25 0 -30 4 -30 25 0 21 5 25 30 25 28 0 30 3 30 35 0 32 2
35 30 35 28 0 30 -3 30 -35z m5820 -380 c0 -20 -5 -25 -25 -25 -20 0 -25 5
-25 25 0 20 5 25 25 25 20 0 25 -5 25 -25z m1280 -130 c0 -20 -5 -25 -25 -25
-20 0 -25 5 -25 25 0 20 5 25 25 25 20 0 25 -5 25 -25z m-8510 -125 c0 -26 -4
-30 -27 -30 -24 0 -28 4 -28 30 0 26 4 30 28 30 23 0 27 -4 27 -30z m6010
-255 c0 -20 -5 -25 -25 -25 -20 0 -25 5 -25 25 0 20 5 25 25 25 20 0 25 -5 25
-25z m-1595 -67 c0 -30 3 -33 33 -36 26 -3 32 -7 32 -28 0 -21 -5 -24 -35 -24
-32 0 -35 -3 -35 -29 0 -23 -5 -30 -25 -33 -23 -5 -25 -2 -25 28 0 31 -3 34
-30 34 -25 0 -30 4 -30 25 0 21 5 25 30 25 28 0 30 3 30 35 0 32 3 35 28 35
24 0 27 -4 27 -32z m4927 -130 c3 -30 6 -33 36 -33 28 0 32 -3 32 -27 0 -25
-3 -28 -35 -28 -32 0 -35 -2 -35 -30 0 -25 -4 -30 -25 -30 -21 0 -25 5 -25 30
0 27 -3 30 -34 30 -30 0 -33 2 -28 25 3 20 10 25 33 25 26 0 29 3 29 35 0 30
3 35 24 35 21 0 25 -6 28 -32z m-5692 -253 c0 -21 -5 -25 -30 -25 -25 0 -30 4
-30 25 0 21 5 25 30 25 25 0 30 -4 30 -25z m-1600 -510 c0 -21 -5 -25 -30 -25
-25 0 -30 4 -30 25 0 21 5 25 30 25 25 0 30 -4 30 -25z m4410 -135 c0 -28 3
-30 35 -30 32 0 35 -3 35 -28 0 -24 -4 -27 -32 -27 -30 0 -33 -3 -36 -32 -3
-27 -7 -33 -28 -33 -21 0 -24 5 -24 35 0 32 -3 35 -29 35 -23 0 -30 5 -33 25
-5 23 -2 25 28 25 31 0 34 3 34 30 0 25 4 30 25 30 21 0 25 -5 25 -30z m-5820
-379 c0 -24 -3 -28 -24 -24 -16 3 -26 13 -29 29 -4 21 0 24 24 24 25 0 29 -4
29 -29z m8450 -63 c0 -24 -4 -28 -30 -28 -26 0 -30 4 -30 28 0 23 4 27 30 27
26 0 30 -4 30 -27z m-4100 -253 c0 -20 -5 -25 -25 -25 -20 0 -25 5 -25 25 0
20 5 25 25 25 20 0 25 -5 25 -25z m-2498 -714 c2 -21 9 -27 36 -29 26 -3 32
-8 32 -27 0 -19 -6 -24 -32 -27 -30 -3 -33 -6 -33 -35 0 -29 -3 -33 -27 -33
-25 0 -28 3 -28 35 0 32 -2 35 -30 35 -25 0 -30 4 -30 25 0 21 5 25 30 25 27
0 30 3 30 34 0 30 2 33 24 29 18 -4 26 -13 28 -32z m4418 4 c0 -20 -5 -25 -25
-25 -20 0 -25 5 -25 25 0 20 5 25 25 25 20 0 25 -5 25 -25z m-1220 -705 c0
-28 3 -30 35 -30 32 0 35 -2 35 -30 0 -28 -3 -30 -35 -30 -32 0 -35 -2 -35
-30 0 -25 -4 -30 -25 -30 -21 0 -25 5 -25 30 0 27 -3 30 -30 30 -27 0 -30 3
-30 30 0 27 3 30 30 30 27 0 30 3 30 30 0 25 4 30 25 30 21 0 25 -5 25 -30z
m-315 -380 c0 -26 -4 -30 -27 -30 -24 0 -28 4 -28 30 0 26 4 30 28 30 23 0 27
-4 27 -30z"/>
</g>
</svg>
