<?xml version="1.0" encoding="utf-8"?>
<svg version="1.1" id="Layer_1" xmlns="http://www.w3.org/2000/svg" xmlns:xlink="http://www.w3.org/1999/xlink" x="0px" y="0px"
	 viewBox="0 0 1504.714 1662.006" enable-background="new 0 0 1504.714 1662.006" xml:space="preserve">
<title>Toggle Dark Mode</title>
<g>
	<path fill="none" d="M894.818,1512.586c-416.964-53.313-696.187-471.929-555.293-898.349
		c43.368-120.444,105.909-209.652,191.187-286.492c34.724-31.267,83.945-65.603,114.124-82.104
		c282.161-158.588,604.198-92.649,795.902,109.267c-59.545-64.81-119.089-112.891-200.916-159.637
		c-31.588-17.937-77.321-38.716-107.8-49.573C747.665,7.425,355.342,187.742,198.229,522.093
		c-243.675,531.376,188.003,1124.529,794.422,1035.351c96.254-16.866,157.068-39.496,231.404-76.829
		c54.833-28.015,119.983-72.544,173.5-122.262C1265.903,1477.302,1077.779,1535.042,894.818,1512.586z"/>
	<path fill="#9913E6" d="M1361.556,1385.29c-11.915,9.011-37.306,25.58-38.42,26.137l-0.111-0.198h0l0.111,0.198
		c-0.515,0.345-4.814,2.966-5.384,3.315c-43.641,26.554-82.206,44.096-127.898,59.911l-0.116-0.392l0,0l0.116,0.392
		c-66.257,22.919-137.054,31.064-145.49,31.064l-0.035-0.559h0l0.036,0.559c-103.939,9.605-204.728-4.673-295.909-39.547
		l0.296-0.732l0,0l-0.296,0.732c-152.448-58.344-270.732-166.83-341.308-290.144l0.857-0.487l0,0l-0.857,0.487
		c-25.944-45.366-45.903-89.987-61.128-139.995l0.974-0.293l0,0l-0.974,0.293c-15.527-51.209-22.857-92.864-27.417-143.787
		c-0.122-1.409-0.449-6.544-0.449-6.568l1.031-0.07v0l-1.031,0.07c-5.826-90.438,6.484-149.168,6.484-152.752
		c0.535,0.083,1.021,0.158,1.021,0.158l-1.021-0.158c8.24-49.486,17.653-84.461,32.189-125.071
		c3.926-10.898,8.571-22.356,8.571-22.356l0.946,0.377v0l-0.946-0.377c101.582-244.977,291.219-329.648,297.931-336.361l0.437,0.76
		l0,0l-0.437-0.76c71.399-38.428,142.414-63.829,227.855-75.974c73.638-10.322,152.704-7.113,210.506,4.447l-0.084,0.557h0
		l0.084-0.557c90.961,16.48,174.433,51.872,250.956,104.616c0.191,0.132,18.63,13.267,18.63,13.497l-0.129,0.189h0l0.129-0.189
		c39.279,30.358,68.008,56.372,105.37,101.053c-37.489-47.39-69.522-82.776-119.784-125.536
		c-44.48-37.732-86.701-63.488-86.701-63.488l0.187-0.275v0l-0.187,0.275c-51.012-32.17-103.754-57.177-153.761-74.832
		c-65.689-22.269-88.246-24.801-102.284-28.311l0.13-0.561l0,0l-0.13,0.561c-43.892-9.258-101.384-15.042-136.692-15.042
		l0.029-0.672l0,0l-0.029,0.672C748.064,86.398,610.98,117.81,485.421,190.326l-0.436-0.775l0,0l0.436,0.775
		c-39.314,22.687-79.669,51.664-110.608,78.486l-0.602-0.72l0,0l0.602,0.72c-39.274,33.984-63.467,59.587-94.51,96.912l-0.753-0.622
		l0,0l0.753,0.622c-6.118,7.31-23.813,30.481-33.066,44.015c-28.235,41.362-50.031,78.743-71.816,128.916
		c-12.693,29.377-23.932,62.121-23.932,63.121l-0.972-0.322l0,0l0.972,0.322c-14.526,45.196-23.231,82.455-30.038,131.428
		l-1.024-0.138c0,0,0.487,0.066,1.024,0.138c-6.301,45.346-7.449,88.846-5.761,134.786l-1.033,0.05c0,0,0.998-0.048,1.033-0.05
		c1.396,38.264,8.503,91.576,18.634,133.565l-0.998,0.237c0,0,0.961-0.228,0.998-0.237c16.16,67.025,38.667,120.012,42.647,127.972
		l-0.92,0.41v0l0.92-0.41c45.269,105.497,125.447,213.996,237.447,298.091c0.131,0.097,17.029,12.474,17.192,12.474l-0.502,0.737
		l0,0l0.502-0.737c67.261,48.076,155.136,90.135,246.503,112.977l-0.171,0.741l0,0l0.171-0.741
		c272.648,64.867,547.422-9.113,758.693-233.251C1412.02,1344.81,1394.841,1360.183,1361.556,1385.29z M928.515,1564.992
		c-42.849,2.671-76.962,3.691-135.87-1.924c-30.658-2.573-94.59-14.011-132.466-25.858
		C148.5,1383.517-38.875,774.166,301.08,361.739c21.674-26.081,57.456-62.69,86.374-86.741
		C537.512,149.826,704.564,96.345,889.562,99.039c1.62-0.003,19.749,0.692,30.427,1.42c22.454,1.687,13.535,0.874,37.523,3.429
		c68.539,7.27,154.34,29.793,226.552,63.262c85.895,39.584,147.954,83.533,215.501,145.659
		c20.77,19.604,41.526,42.481,41.173,42.097c-162.266-170.909-423.763-250.154-687.028-159.214
		c-26.917,9.092-67.742,27.587-83.784,36.278c-333.146,175.376-466.144,579.186-289.26,924.507
		c217.904,403.437,725.074,465.535,1016.889,201.873C1264.713,1481.766,1091.943,1554.598,928.515,1564.992z"/>
	<path fill="#4914A0" d="M1360.325,1383.424c-12.161,8.836-37.471,24.644-38.726,25.271l-0.111-0.198l0,0l0.111,0.198
		c-0.515,0.332-4.846,2.859-5.417,3.193c-44.781,26.144-83.612,42.768-127.93,57.348l-0.116-0.392l0,0l0.116,0.392
		c-46.624,15.335-95.06,24.3-142.722,28.628c-1.079,0.086-1.655,0.132-1.655,0.132l-0.035-0.559l0,0l0.035,0.559
		c-86.221,6.863-144.253-4.332-147.771-4.332l0.108-0.677h0l-0.108,0.677c-51.621-7.685-88.552-17.72-130.698-32.778
		c-1.004-0.366-11.75-4.271-12.869-4.83l0.296-0.732h0l-0.296,0.732c-134.733-52.898-249.341-146.068-330.309-281.2
		c-0.063-0.105-3.245-5.44-3.245-5.562l0.857-0.488l0,0l-0.857,0.488c-24.521-43.25-44.382-87.207-59.514-137.307l0.974-0.293l0,0
		l-0.974,0.293c-48.66-161.66-20.732-287.683-20.732-296.877c0.535,0.083,1.021,0.158,1.021,0.158l-1.021-0.158
		c12.23-73.596,31.028-135.48,71.6-212.263c15.381-29.593,39.312-63.777,39.312-63.777l0.814,0.561l0,0l-0.814-0.561
		C548.83,317.829,663.94,265.049,669.359,259.63l0.437,0.76l0,0l-0.437-0.76c57.33-31.311,104.702-49.612,159.734-63.695
		c56.564-14.455,114.253-18.949,123.827-18.949l0.05,0.687h0l-0.05-0.687c46.187-2.168,89.909-0.975,141.344,7.266
		c106.298,17.738,201.251,59.136,275.234,114.076l-0.129,0.189l0,0l0.129-0.189c41.046,30.481,69.572,55.799,107.147,98.449
		c-33.966-40.62-61.969-67.509-105.37-101.053l-0.129,0.189h0l0.129-0.189c0-0.442-27.374-19.524-27.818-19.83
		c-30.162-19.753-43.395-27.18-68.36-40.044c-55.346-28.195-117.844-48.172-173.408-58.239l-0.084,0.557h0l0.084-0.557
		c-23.425-4.685-66.24-9.799-101.873-10.591c-117.019-1.905-222.482,20.758-336.489,82.118l0.437,0.76l0,0l-0.437-0.76
		c-7.366,7.366-196.39,91.482-297.931,336.361l0.946,0.377v0l-0.946-0.377c0,0-3.859,9.193-12.48,33.277
		c-17.349,52.727-22.735,80.848-28.28,114.149c0.535,0.083,1.021,0.158,1.021,0.158l-1.021-0.158
		c0,4.568-12.392,61.051-6.484,152.752l1.031-0.07v0l-1.031,0.07c0,3.758,3.613,70.365,27.866,150.355l0.974-0.293l0,0l-0.974,0.293
		c15.141,49.73,35.06,94.411,61.128,139.995l0.857-0.487l0,0l-0.857,0.487c71.872,125.578,190.816,232.548,341.308,290.144
		l0.296-0.732l0,0l-0.296,0.732c90.786,34.722,191.447,49.2,295.909,39.547l-0.036-0.559h0l0.035,0.559
		c4.048,0,74.54-6.522,145.49-31.064l-0.116-0.392l0,0l0.116,0.392c66.615-23.057,118.472-53.286,133.282-63.225l-0.111-0.198h0
		l0.111,0.198c2.41-1.205,22.656-14.927,23.657-15.603c33.009-23.303,57.119-42.837,90.013-76.006
		C1411.662,1343.907,1394.082,1359.041,1360.325,1383.424z"/>
	<path fill="#1D3DDD" d="M1359.093,1381.558c-11.857,8.27-37.388,23.584-39.031,24.406l-0.111-0.198h0l0.111,0.198
		c-0.517,0.319-4.879,2.752-5.449,3.071c-66.841,37.39-126.961,54.786-127.962,54.786l-0.116-0.392l0,0l0.116,0.392
		c-90.427,28.198-195.1,35.487-289.053,20.491l0.108-0.677l0,0l-0.108,0.677c-46.469-7.423-93.205-19.126-140.978-38.37l0.296-0.732
		l0,0l-0.296,0.732c-79.138-31.882-126.103-67.651-128.926-69.062l0.499-0.717l0,0l-0.499,0.717
		c-83.407-57.397-152.147-134.735-196.874-214.318l0.857-0.488l0,0l-0.857,0.488c-23.696-42.174-43.109-85.24-57.901-134.619
		l0.974-0.293l0,0l-0.974,0.293c-44.66-149.507-33.329-305.318,18.609-432.036l0.946,0.377l0,0l-0.946-0.377
		c34.03-83.02,74.919-144.946,132.525-206.933c12.715-13.878,32.09-31.559,33.09-32.559l0.638,0.692l0,0l-0.638-0.692
		c21.09-19.53,39.168-33.724,62.289-50.476c19.248-13.891,49.227-32.45,55.958-35.815l0.437,0.76l0,0l-0.437-0.76
		c103.71-57.498,210.044-86.85,337.678-84.893c131.077,3.025,257.81,46.668,354.652,115.703l-0.129,0.189l0,0l0.129-0.189
		c44.58,31.778,72.626,56.727,108.924,95.845c-38.13-43.281-66.837-68.514-107.147-98.449l-0.129,0.189l0,0l0.129-0.189
		c-38.679-28.723-83.485-52.983-127.605-71.866c-82.977-35.502-180.383-54.573-288.973-49.476l0.05,0.687h0l-0.05-0.687
		c-1,0-59.166,2.425-123.827,18.949c-55.523,14.208-102.834,32.619-159.734,63.695l0.437,0.76l0,0l-0.437-0.76
		c-5.378,5.377-120.557,58.238-219.711,199.441l0.814,0.561l0,0l-0.814-0.561c0,0-23.931,34.184-39.312,63.777
		c-35.274,66.755-57.541,127.661-71.6,212.263c0.535,0.083,1.021,0.158,1.021,0.158l-1.021-0.158
		c0,10.439-27.929,135.211,20.732,296.877l0.974-0.293l0,0l-0.974,0.293c15.087,49.949,34.896,93.885,59.514,137.307l0.857-0.488
		l0,0l-0.857,0.488c0,0.122,3.181,5.457,3.245,5.562c79.954,133.438,193.745,227.583,330.309,281.2l0.296-0.732h0l-0.296,0.732
		c1.125,0.563,11.868,4.465,12.869,4.83c41.273,14.746,78.174,24.959,130.698,32.778l0.108-0.677h0l-0.108,0.677
		c3.432,0,61.691,11.184,147.771,4.332l-0.035-0.559l0,0l0.035,0.559c7.572,0,76.794-6.531,144.377-28.76l-0.116-0.392l0,0
		l0.116,0.392c42.841-14.095,66.299-25.037,92.791-38.133c20.209-10.267,39.555-21.765,40.555-22.409l-0.111-0.198l0,0l0.111,0.198
		c1.003-0.501,12.658-7.839,19.346-12.163c36.049-23.369,66.34-48.433,95.86-76.714
		C1411.217,1343.102,1393.568,1357.737,1359.093,1381.558z"/>
	<path fill="#019A4A" d="M1357.861,1379.692c-11.486,7.682-36.855,22.299-39.337,23.54l-0.111-0.198l0,0l0.111,0.198
		c-0.521,0.308-4.906,2.642-5.481,2.95c-45.142,24.159-84.103,39.301-127.994,52.224l-0.116-0.392l0,0l0.116,0.392
		c-42.154,12.416-94.254,21.613-142.151,24.15l-0.036-0.559h0l0.036,0.559c-244.341,12.942-394.454-108.65-408.312-115.579
		l0.499-0.717l0,0l-0.499,0.717c-62.31-43.477-99.086-86.221-107.767-94.901l0.693-0.633l0,0l-0.693,0.633
		c-48.046-51.881-84.161-115.244-84.161-116.246l0.857-0.488l0,0l-0.857,0.488c-23.925-42.991-42.281-84.764-56.288-131.932
		l0.974-0.293l0,0l-0.974,0.293c-61.869-208.765-14.561-425.258,112.796-585.911c35.291-43.99,64.428-69.657,66.788-72.017
		l0.638,0.692l0,0l-0.638-0.692c49.649-46.43,108.357-81.799,115.469-85.355l0.437,0.76h0l-0.437-0.76
		c91.868-51.729,184.829-78.635,272.872-84.655l0.05,0.687l0,0l-0.05-0.687c17.232-1.18,11.262-0.843,27.763-1.554
		c124.796-5.388,259.087,28.211,378.684,105.715c0.051,0.033,5.202,3.356,5.202,3.417l-0.129,0.189h0l0.129-0.189
		c45.472,31.085,73.479,55.151,110.701,93.241c-38.993-42.023-67.556-66.357-108.924-95.845l-0.129,0.189l0,0l0.129-0.189
		c-96.363-68.693-230.425-115.997-367.86-115.918c-113.492,0.724-214.351,24.056-324.47,85.108l0.437,0.76l0,0l-0.437-0.76
		c-11.514,5.757-68.258,40.001-118.247,86.292l0.638,0.692l0,0l-0.638-0.692c-9.837,9.837-36.848,31.859-81.332,89.637
		c-34.411,46.911-58.934,88.013-84.283,149.856l0.946,0.377l0,0l-0.946-0.377c-52.365,127.759-63.009,283.401-18.609,432.036
		l0.974-0.293l0,0l-0.974,0.293c14.409,48.101,33.303,90.84,57.901,134.619l0.857-0.488l0,0l-0.857,0.488
		c45.524,81.001,114.739,157.796,196.874,214.318l0.499-0.717l0,0l-0.499,0.717c3.799,1.9,49.121,36.912,128.926,69.062l0.296-0.732
		l0,0l-0.296,0.732c46.12,18.578,92.676,30.654,140.978,38.37l0.108-0.677l0,0l-0.108,0.677
		c96.164,15.349,201.059,6.948,289.053-20.491l-0.116-0.392l0,0l0.116,0.392c0.539,0,21.06-6.823,21.677-7.031
		c38.662-12.6,92.158-38.742,111.734-50.826l-0.111-0.198h0l0.111,0.198c3.406-1.703,23.002-13.914,24.002-14.535
		c33.688-21.886,57.152-39.226,92.742-71.61C1410.657,1342.412,1392.826,1356.606,1357.861,1379.692z"/>
	<path fill="#FDE000" d="M1316.987,1400.5l-0.111-0.198h0L1316.987,1400.5c-0.523,0.295-4.938,2.535-5.514,2.828
		c-45.111,23.061-84.063,37.488-128.025,49.661l-0.116-0.392l0,0l0.116,0.392c-149.524,41.433-279.987,12.617-282.863,12.617
		l0.108-0.677h0l-0.108,0.677c-44.845-8.184-90.136-20.482-135.8-39.893l0.296-0.732l0,0l-0.296,0.732
		c-69.323-29.444-121.616-66.949-123.308-68.642l0.499-0.717l0,0l-0.499,0.717c-79.553-56.312-145.189-132.094-186.983-207.976
		l0.857-0.488l0,0l-0.857,0.488c-22.368-40.595-40.684-81.697-54.674-129.244l0.974-0.293l0,0l-0.974,0.293
		c-10.264-34.926-15.843-62.601-20.238-93.812c-3.031-21.871-4.504-43.082-4.504-44.228l1.031-0.07v0l-1.031,0.07
		c-6.289-100.281,10.108-195.316,42.582-275.499l0.946,0.377l0,0l-0.946-0.377c23.151-57.196,47.312-101.043,88.264-155.156
		c30.049-39.974,67.84-74.632,68.84-75.632l0.638,0.692l0,0l-0.638-0.692c104.23-98.502,243.684-159.209,380.218-170.08l0.05,0.687
		l0,0l-0.05-0.687c92.697-7.395,183.311,1.734,279.174,36.306c0.984,0.366,1.508,0.562,1.508,0.562l-0.15,0.383l0,0l0.15-0.383
		c49.645,18.483,94.089,41.292,128.503,63.827l-0.129,0.189l0,0l0.129-0.189c46.167,30.235,74.381,53.611,112.478,90.636
		c-39.956-40.888-68.562-64.435-110.701-93.241l-0.129,0.189h0l0.129-0.189c0-0.066-11.142-7.266-11.197-7.302
		c-89.345-57.93-194.033-91.132-289.771-99.481c-42.494-3.639-71.114-3.504-110.681-0.794l0.05,0.687l0,0l-0.05-0.687
		c-64.2,4.39-138.643,21.57-208.684,52.17c-15.77,7.083-29.154,12.758-64.188,32.485l0.437,0.76h0l-0.437-0.76
		c-13.773,6.887-68.802,41.715-115.469,85.355l0.638,0.692l0,0l-0.638-0.692c-6.11,6.11-47.789,41.904-93.829,108.589
		c-109.13,158.376-141.903,359.879-85.755,549.339l0.974-0.293l0,0l-0.974,0.293c14.343,48.301,33.159,90.371,56.288,131.932
		l0.857-0.488l0,0l-0.857,0.488c0,1,35.644,63.856,84.161,116.246l0.693-0.633l0,0l-0.693,0.633
		c4.642,4.642,44.009,50.414,107.767,94.901l0.499-0.717l0,0l-0.499,0.717c17.496,8.748,163.837,128.529,408.312,115.579
		l-0.036-0.559h0l0.036,0.559c47.789-2.531,99.903-11.706,142.151-24.15l-0.116-0.392l0,0l0.116,0.392
		c43.265-12.739,75.886-25.806,113.453-44.625c10.083-5.186,19.022-9.958,20.022-10.549l-0.111-0.198l0,0l0.111,0.198
		c4.401-2.2,52.778-28.738,101.008-68.714c8.82-7.344,1.31-0.907,17.273-14.7C1390.395,1357.887,1346.193,1385.898,1316.987,1400.5z
		"/>
	<path fill="#FF5A00" d="M1315.45,1397.769l-0.111-0.198l0,0L1315.45,1397.769c-1.007,0.542-26.061,13.486-65.62,28.598
		c-64.326,24.009-122.98,35.181-185.884,39.742c-2.936,0.232-18.814,1.006-22.026,1.006l-0.035-0.559l0,0l0.035,0.559
		c-51.414,1.292-98.343-2.786-139.841-10.86l0.108-0.677l0,0l-0.108,0.677c-157.404-30.618-243.942-104.202-253.711-109.086
		l0.499-0.717l0,0l-0.499,0.717c-77.413-55.608-141.587-130.562-182.038-204.804l0.857-0.488l0,0l-0.857,0.488
		c-22.188-40.692-39.677-80.631-53.061-126.556l0.974-0.293l0,0l-0.974,0.293c-19.883-68.264-23.96-129.44-23.96-134.961l1.031-0.07
		v0l-1.031,0.07c-7.566-121.607,17.475-229.02,69.988-331.793c11.371-22.667,34.246-57.953,35.302-59.009l0.814,0.561l0,0
		l-0.814-0.561c196.698-290.253,584.535-358.814,867.791-181.3l-0.129,0.189l0,0l0.129-0.189
		c47.71,29.897,75.949,52.679,114.255,88.032c-38.441-37.36-66.667-60.634-112.478-90.636l-0.129,0.189l0,0l0.129-0.189
		c-35.512-23.254-79.412-45.551-128.503-63.827l-0.15,0.383l0,0l0.15-0.383c-1.928-0.964-114.638-46.274-258.526-38.425
		c-11.127,0.636-3.302,0.054-22.157,1.558l0.05,0.687l0,0l-0.05-0.687c-134.806,10.733-274.954,70.6-380.218,170.08l0.638,0.692l0,0
		l-0.638-0.692c-3.076,3.076-30.404,27.266-65.078,70.862c-40.426,51.436-68.589,102.025-92.025,159.927l0.946,0.377l0,0
		l-0.946-0.377c-31.678,78.22-48.963,173.74-42.582,275.499l1.031-0.07v0l-1.031,0.07c0,3.874,3.236,64.86,24.741,138.039
		l0.974-0.293l0,0l-0.974,0.293c13.592,46.195,31.407,87.017,54.674,129.244l0.857-0.488l0,0l-0.857,0.488
		c42.844,77.788,109.18,152.903,186.983,207.976l0.499-0.717l0,0l-0.499,0.717c1,1,50.771,37.833,123.308,68.642l0.296-0.732l0,0
		l-0.296,0.732c44.081,18.739,89.264,31.4,135.8,39.893l0.108-0.677h0l-0.108,0.677c2.361,0,133.182,28.86,282.863-12.617
		l-0.116-0.392l0,0l0.116,0.392c53.024-14.683,89.001-29.783,132.104-51.739c0.945-0.474,1.435-0.75,1.435-0.75l-0.111-0.198h0
		l0.111,0.198c29.732-14.866,73.796-42.932,119.818-80.682C1398.892,1349.323,1362.887,1374.05,1315.45,1397.769z"/>
	<path fill="#D10E1C" d="M1362.391,308.745l-0.129,0.189l0,0L1362.391,308.745c-279.932-175.432-669.467-111.351-867.791,181.3
		l0.814,0.561l0,0l-0.814-0.561c-0.613,0.613-11.13,17.008-11.756,18.01C412.535,622.785,380.88,745.357,389.31,880.847l1.031-0.07
		v0l-1.031,0.07c0,1.077,2.5,61.284,23.96,134.961l0.974-0.293l0,0l-0.974,0.293c13.538,46.454,31.465,86.95,53.061,126.556
		l0.857-0.488l0,0l-0.857,0.488c41.307,75.815,106.088,150.248,182.038,204.804l0.499-0.717l0,0l-0.499,0.717
		c9.41,4.705,96.339,78.475,253.711,109.086l0.108-0.677l0,0l-0.108,0.677c42.038,8.178,89.447,12.126,139.841,10.86l-0.035-0.559
		l0,0l0.035,0.559c19.308,0,67.842-4.437,96.038-10.028c49.292-9.264,82.485-19.495,124.324-35.478
		c12.275-5.002,38.27-15.816,53.167-23.841l-0.111-0.198l0,0l0.111,0.198c47.603-23.802,84.584-49.334,121.355-77.95
		c-18.608,13.681-35.535,26.313-71.424,47.714c-152.789,89.096-323.162,111.447-482.708,74.066
		c-87.658-20.475-171.035-62.957-222.217-101.591c-362.316-266.753-339.145-800.953,50.258-1033.558
		c13.511-8.336,49.963-27.104,71.851-35.934c231.972-95.687,491.863-51.988,689.359,122.141c3.004,2.623,4.72,4.122,4.72,4.122
		C1437.692,360.825,1409.251,338.11,1362.391,308.745z"/>
	<polygon fill="#019A4A" points="736.296,67.311 736.296,67.311 736.338,67.609 	"/>
	<polygon fill="#FF5A00" points="733.369,46.594 733.369,46.594 733.406,46.857 	"/>
	<polygon fill="#9913E6" points="1333.06,1415.431 1333.06,1415.431 1332.948,1415.298 	"/>
	<path fill="#4914A0" d="M956.764,1570.264c-84.864,11.12-177.957,6.762-278.651-17.194l-0.171,0.741l0,0l0.171-0.741
		c-91.437-22.859-179.364-64.988-246.503-112.977l-0.502,0.737l0,0l0.502-0.737c-0.626,0-24.931-18.284-25.417-18.649
		c-107.623-84.626-183.058-184.333-229.222-291.915l-0.92,0.41v0l0.92-0.41c-0.59-1.179-24.47-52.581-42.647-127.972l-0.998,0.237
		c0,0,0.961-0.228,0.998-0.237c-10.295-42.67-17.269-96.173-18.634-133.565l-1.033,0.05c0,0,0.998-0.048,1.033-0.05
		c-1.702-46.338-0.627-88.811,5.761-134.786l-1.024-0.138c0,0,0.487,0.066,1.024,0.138c6.795-48.887,15.483-86.142,30.038-131.428
		l-0.972-0.322l0,0l0.972,0.322c0-1,15.79-46.806,29.024-74.647c21.193-45.969,41.349-81.527,73.809-127.354
		c11.879-16.59,25.144-33.051,25.982-34.052l-0.753-0.622l0,0l0.753,0.622c31.737-38.16,55.641-63.278,94.51-96.912l-0.602-0.72l0,0
		l0.602,0.72c30.938-26.822,71.293-55.798,110.608-78.486l-0.436-0.775l0,0l0.436,0.775
		C608.243,119.391,744.752,86.317,877.423,89.568l0.029-0.672l0,0l-0.029,0.672c33.936,0,90.85,5.373,136.692,15.042l0.13-0.561l0,0
		l-0.13,0.561c21.78,5.445,129.503,23.34,256.045,103.143l0.187-0.275v0l-0.187,0.275c0,0,50.806,30.475,111.188,84.999
		c35.864,32.382,66.385,67.477,95.298,104.025c-28.322-37.29-57.917-72.603-93.533-105.8l0.128-0.129l0,0l-0.128,0.129
		c-62.698-58.442-110.365-87.018-110.365-87.018l0.188-0.275l0,0l-0.188,0.275C1118.674,103.835,932.034,59.534,739.33,88.779
		l-0.106-0.75l0,0l0.106,0.75c-67.381,10.212-130.513,31.507-134.3,33.401l-0.266-0.786l0,0l0.266,0.786
		c-142.13,51.771-245.514,127.935-335.124,234.953l-0.753-0.622l0,0l0.753,0.622c-29.039,34.482-65.218,90.543-76.993,114.093
		l-0.879-0.487v0l0.879,0.487c-34.055,61.453-54.851,124.745-54.851,126.098l-0.972-0.322l0,0l0.972,0.322
		c-14.395,44.608-19.539,69.208-25.866,102.422c-0.167,1.01-4.886,29.13-4.886,31.549l-1.024-0.138c0,0,0.487,0.066,1.024,0.138
		c-20.919,150.299,13.24,270.894,13.24,273.534l-0.998,0.237v0l0.998-0.237c4.259,17.58,4.693,19.883,12.957,47.976
		c35.167,116.49,97.698,202.627,97.698,202.627l-0.805,0.556l0,0l0.805-0.556c42.444,61.903,85.896,107.735,138.563,152.936
		c15.205,12.442,37.204,30.101,54.905,41.902l-0.502,0.737h0l0.502-0.737c87.078,61.478,204.246,110.77,325.613,127.247
		c123.067,15.627,190.389,1.386,201.714,1.386l0.081,0.572l0,0l-0.081-0.572c1.051-0.096,49.149-6.379,87.651-16.259
		c63.327-16.245,120.218-37.195,177.481-68.21l0.164,0.291l0,0l-0.164-0.291c40.949-22.175,82.195-48.603,117.427-77.213
		l0.051,0.061l-0.051-0.061c41.313-33.543,64.625-55.811,102.247-97.404C1307.164,1457.355,1152.351,1544.843,956.764,1570.264z
		 M1333.06,1415.431l-0.111-0.133L1333.06,1415.431L1333.06,1415.431z"/>
	<path fill="#1D3DDD" d="M1334.558,1417.222l0.051,0.061L1334.558,1417.222c-35.653,28.952-77.379,55.525-117.427,77.213
		l0.164,0.291l0,0l-0.164-0.291c-71.358,38.648-142.735,62.089-221.507,77.729c-1.001,0.171-33.283,5.797-43.625,6.74l0.081,0.572
		l0,0l-0.081-0.572c-9.13,0-277.945,47.433-527.327-128.633l-0.502,0.737h0l0.502-0.737
		c-63.596-42.397-136.688-112.026-193.468-194.838l-0.805,0.556l0,0l0.805-0.556c0,0-73.512-97.281-110.655-250.603l-0.998,0.237v0
		l0.998-0.237c0-3.739-34.246-122.613-13.24-273.534l-1.024-0.138c0,0,0.487,0.066,1.024,0.138c0-1.001,6.607-59.147,30.753-133.971
		l-0.972-0.322l0,0l0.972,0.322c0-1,19.915-63.053,54.851-126.098l-0.879-0.487v0l0.879,0.487
		c11.354-22.709,49.591-81.555,76.993-114.093l-0.753-0.622l0,0l0.753,0.622C363.516,245.338,468.92,171.758,605.029,122.18
		l-0.266-0.786l0,0l0.266,0.786c1.002-0.501,60.628-22.236,134.3-33.401l-0.106-0.75l0,0l0.106,0.75
		c181.66-27.568,369.962,8.958,533.418,115.18l0.188-0.275l0,0l-0.188,0.275c0,0,47.899,28.793,110.365,87.018l0.128-0.129l0,0
		l-0.128,0.129c38.207,35.612,68.393,72.699,93.533,105.8c-26.542-36.418-56.437-73.603-91.768-107.575l0.128-0.129l0,0
		l-0.128,0.129c-60.027-57.737-109.543-89.037-109.543-89.037l0.188-0.275l0,0l-0.188,0.275
		c-63.227-42.315-122.754-67.494-123.754-67.494l0.186-0.424l0,0l-0.186,0.424c-69.988-30.481-133.888-43.541-133.888-43.541
		l0.13-0.561h0l-0.13,0.561C933.32,69.518,835.586,64.351,737.866,78.42l-0.037-0.263l0.037,0.263
		c-72.557,10.443-135.274,32.295-136.508,32.912l-0.266-0.786h0l0.266,0.786c-138.907,49.499-246.063,123.544-341.852,237.211
		l-0.753-0.622l0,0l0.753,0.622c-21.002,24.783-50.981,66.697-75.803,110.688c-47.062,84.456-76.695,171.104-90.538,270.155
		l-1.024-0.138c0,0,0.487,0.066,1.024,0.138c-6.809,48.847-7.779,92.65-5.993,139.991l-1.033,0.05c0,0,0.998-0.048,1.033-0.05
		c3.131,83.048,24.115,179.087,61.984,265.955c1.533,3.517,2.409,5.527,2.409,5.528l-0.92,0.41l0,0l0.92-0.41
		c91.445,209.862,288.605,380.911,527.723,433.986c153.133,33.978,264.415,11.961,273.829,11.961l0.081,0.572l0,0l-0.081-0.572
		c1.595-0.162,50.044-7.089,88.329-17.387c35.308-9.495,48.822-14.429,48.822-14.429l0.149,0.44h0l-0.149-0.44
		c45.263-14.904,91.19-35.313,129.125-56.531l0.164,0.292l0,0l-0.164-0.292c87.716-49.054,152.293-103.596,217.411-178.64
		C1401.074,1359.321,1378.009,1381.943,1334.558,1417.222z"/>
	<polygon fill="#019A4A" points="1337.906,1421.223 1337.906,1421.223 1337.795,1421.09 	"/>
	<path fill="#019A4A" d="M1219.394,1498.458l0.164,0.292l0,0L1219.394,1498.458c-37.812,21.149-83.732,41.584-129.125,56.531
		l0.149,0.44h0l-0.149-0.44c-8.139,2.035-47.732,18.255-135.582,31.611c-1.021,0.149-1.569,0.205-1.569,0.205l0.081,0.572l0,0
		l-0.081-0.572c-1.642,0-62.005,9.464-134.494,6.365c-312.255-13.343-561.137-209.229-667.058-452.312l-0.92,0.41l0,0l0.92-0.41
		c-12.516-25.032-36.702-93.646-46.19-138.619c-11.169-51.45-16.861-97.259-18.203-132.863l-1.033,0.05c0,0,0.998-0.048,1.033-0.05
		c-1.731-45.878-0.967-90.059,5.993-139.991l-1.024-0.138c0,0,0.487,0.066,1.024,0.138c9.101-65.125,23.169-115.956,42.359-167.173
		c31.102-82.054,77.822-159.201,123.982-213.669l-0.753-0.622l0,0l0.753,0.622c99.151-117.656,208.075-189.54,341.852-237.211
		l-0.266-0.786h0l0.266,0.786c1.04-0.52,62.284-22.229,136.508-32.912l-0.037-0.263l0.037,0.263
		c98.997-14.253,197.207-8.495,279.828,10.71l0.13-0.561h0l-0.13,0.561c0,0,63.831,13.03,133.888,43.541l0.186-0.424l0,0
		l-0.186,0.424c1,0,59.798,24.691,123.754,67.494l0.188-0.275l0,0l-0.188,0.275c0,0,50.498,32.245,109.543,89.037l0.128-0.129l0,0
		l-0.128,0.129c35.232,33.877,62.977,68.071,91.768,107.575c-26.03-37.239-55.249-74.866-90.003-109.35l0.128-0.129l0,0
		l-0.128,0.129c-59.329-58.877-108.72-91.056-108.72-91.056l0.188-0.275l0,0l-0.188,0.275
		c-64.442-44.382-122.776-69.549-123.776-69.549l0.186-0.424l0,0l-0.186,0.424c-159.02-71.527-345.924-88.76-535.208-33.081
		c-3.374,0.956-21.211,6.721-21.252,6.742l-0.266-0.786h0l0.266,0.786c-44.461,15.504-81.277,30.475-130.317,57.731l-0.436-0.775
		l0,0l0.436,0.775c-77.165,42.894-149.826,101.032-218.263,181.736l-0.753-0.622l0,0l0.753,0.622
		c-53.548,62.813-107.762,155.787-137.903,248.469l-0.972-0.322l0,0l0.972,0.322c-14.379,44.211-20.038,69.596-27.082,106.299
		c-0.168,1.007-5.099,30.252-5.099,32.756l-1.024-0.138c0,0,0.487,0.066,1.024,0.138c-7.179,51.425-7.879,96.284-6.109,142.594
		l-1.033,0.05c0,0,0.998-0.048,1.033-0.05c1.702,44.479,9.103,91.563,18.655,135.335c9.417,44.328,33.757,114.044,47.295,141.12
		l-0.92,0.41l0,0l0.92-0.41c30.471,69.41,69.598,123.277,70.099,124.277l-0.805,0.557v0l0.805-0.557
		c45.681,65.687,91.687,109.27,91.687,109.27l-0.663,0.668h0l0.663-0.668c60.665,59.019,110.148,90.555,110.148,90.555l-0.502,0.737
		h0l0.502-0.737c91.807,63.302,215.151,113.033,343.595,127.237c115.692,12.603,194.178-3.156,199.844-3.156l0.081,0.572l0,0
		l-0.081-0.572c6.898-0.775,65.107-9.149,132.309-31.656c3.68-1.261,5.783-1.982,5.783-1.982l0.149,0.44l0,0l-0.149-0.44
		c45.407-15.565,91.123-36.542,129.329-58.587l0.164,0.292l0,0l-0.164-0.292c88.953-51.324,153.289-108.343,215.148-182.664
		C1373.683,1392.563,1309.585,1448.02,1219.394,1498.458z"/>
	<path fill="#FDE000" d="M1221.657,1502.482l0.164,0.292l0,0L1221.657,1502.482c-38.109,21.989-83.818,42.986-129.329,58.587
		l0.149,0.44l0,0l-0.149-0.44c-7.534,1.883-47.534,18.977-136.509,33.415c-1.03,0.161-1.583,0.223-1.583,0.223l0.081,0.572l0,0
		l-0.081-0.572c-7.302,0-283.847,54.911-543.439-124.081l-0.502,0.737h0l0.502-0.737c0,0-48.855-30.926-110.148-90.555l-0.663,0.668
		h0l0.663-0.668c0,0-46.006-43.583-91.687-109.27l-0.805,0.557v0l0.805-0.557c-0.5-1-39.679-54.986-70.099-124.277l-0.92,0.41l0,0
		l0.92-0.41c-4.153-8.305-35.066-77.657-52.833-167.554c-7.69-41.151-12.003-79.822-13.116-108.901l-1.033,0.05
		c0,0,0.998-0.048,1.033-0.05c-1.86-48.654-0.714-93.721,6.109-142.594l-1.024-0.138c0,0,0.487,0.066,1.024,0.138
		c0-1,7.335-62.662,32.182-139.055l-0.972-0.322l0,0l0.972,0.322c28.984-89.121,81.642-182.473,137.903-248.469l-0.753-0.622l0,0
		l0.753,0.622c62.538-73.747,131.982-133.775,218.263-181.736l-0.436-0.775l0,0l0.436,0.775
		c48.593-27.008,85.451-42.086,130.317-57.731l-0.266-0.786h0l0.266,0.786c1.01-0.505,113.874-42.324,258.668-39.486
		c108.459,2.135,211.27,26.907,297.793,65.825l0.186-0.424l0,0l-0.186,0.424c1,0,60.425,25.918,123.776,69.549l0.188-0.275l0,0
		l-0.188,0.275c0,0,48.883,31.675,108.72,91.056l0.128-0.129l0,0l-0.128,0.129c35.06,34.789,61.835,69.054,90.003,109.35
		c-94.846-141.55-189.694-197.759-196.135-204.2l0.188-0.275v0l-0.188,0.275c-62.607-44.343-122.793-71.603-123.798-71.603
		l0.186-0.424l0,0l-0.186,0.424c-43.331-20.105-88.515-35.593-135.441-47.324l0.13-0.561l0,0l-0.13,0.561
		c-85.415-21.631-185.246-29.004-286.333-15.947l-0.042-0.297l0.042,0.297c-149.74,19.366-287.308,82.842-393.393,171.335
		l-0.602-0.72l0,0l0.602,0.72c-43.437,36.272-70.504,64.422-102.837,102.323l-0.753-0.622l0,0l0.753,0.622
		c-34.14,39.813-72.679,100.579-82.229,119.678l-0.879-0.487v0l0.879,0.487c-24.094,42.765-45.416,92.24-58.704,132.929
		l-0.972-0.322l0,0l0.972,0.322c-16,49.016-25.543,89.237-32.896,141.597l-1.024-0.138c0,0,0.487,0.066,1.024,0.138
		c-7.359,52.639-8.046,98.096-6.225,145.196l-1.033,0.05c0,0,0.998-0.048,1.033-0.05c1.61,41.454,9.237,97.715,20.568,143.889
		l-0.998,0.237c0,0,0.961-0.228,0.998-0.237c23.781,96.831,62.783,184.046,118.618,263.835l-0.805,0.556l0,0l0.805-0.556
		c46.956,67.069,93.647,110.806,93.647,110.806l-0.663,0.667h0l0.663-0.667c40.95,39.532,71.107,63.383,113.718,92.431
		c54.573,38.186,125.854,68.138,125.854,68.138l-0.334,0.762h0l0.334-0.762c70.943,30.22,122.566,40.379,137.603,44.139
		l-0.171,0.741h0l0.171-0.741c164.459,34.04,279.594,8.61,286.692,8.61l0.081,0.572l0,0l-0.081-0.572
		c1-0.123,1.618-0.242,22.156-3.794c134.896-25.731,255.477-85.578,344.954-161.359c17.171-14.526,13.944-11.765,16.941-14.442
		l0.111,0.133l-0.111-0.133c39.893-35.625,63.896-61.211,97.401-103.196C1374.916,1394.175,1310.729,1451.089,1221.657,1502.482z
		 M736.296,67.311l0.042,0.297L736.296,67.311L736.296,67.311z M1337.906,1421.223l-0.111-0.133L1337.906,1421.223
		L1337.906,1421.223z"/>
	<polygon fill="#FF5A00" points="1341.138,1425.085 1341.138,1425.085 1341.027,1424.952 	"/>
	<path fill="#FF5A00" d="M1339.405,1423.014l0.111,0.133L1339.405,1423.014c-37.042,33.085-77.868,61.12-120.767,86.633
		c-74.127,43.251-159.339,75.025-257.186,91.945c-3.196,0.551-5.098,0.894-6.098,1.017l0.081,0.572l0,0l-0.081-0.572
		c0,0-51.348,9.326-130.262,9.292c-64.675-1.632-102.01-6.639-156.43-17.902l-0.171,0.741h0l0.171-0.741
		c-11.524-2.881-65.512-13.43-137.603-44.139l-0.334,0.762h0l0.334-0.762c0,0-65.637-27.086-127.2-69.056
		c-44.237-30.164-74.189-54.652-112.372-91.513l-0.663,0.667h0l0.663-0.667c0,0-46.781-43.865-93.647-110.806l-0.805,0.556l0,0
		l0.805-0.556c-57.366-81.976-95.433-169.431-118.618-263.835l-0.998,0.237c0,0,0.961-0.228,0.998-0.237
		C67.928,968.626,60.27,912.37,58.654,870.761l-1.033,0.05c0,0,0.998-0.048,1.033-0.05c-1.79-46.292-1.258-91.67,6.225-145.196
		l-1.024-0.138c0,0,0.487,0.066,1.024,0.138c7.136-50.814,16.422-91.127,32.896-141.597l-0.972-0.322l0,0l0.972,0.322
		c13.259-40.597,34.545-90.047,58.704-132.929l-0.879-0.487v0l0.879,0.487c11.544-23.087,52.02-84.45,82.229-119.678l-0.753-0.622
		l0,0l0.753,0.622c32.215-37.764,59.229-65.908,102.837-102.323l-0.602-0.72l0,0l0.602,0.72
		C447.633,140.543,585.323,77.052,734.938,57.703l-0.042-0.297l0.042,0.297c98.624-12.739,198.916-6.191,286.333,15.947l0.13-0.561
		l0,0l-0.13,0.561c50.099,12.525,95.079,28.596,135.441,47.324l0.186-0.424l0,0l-0.186,0.424c0.388,0,19.879,9.476,20.227,9.648
		c35.385,17.744,66.294,35.553,103.571,61.955l0.188-0.275v0l-0.188,0.275c0,0,31.734,21.542,75.726,61.487
		c7.357,6.53,29.763,28.734,36.425,35.985c35.09,38.146,52.557,59.826,83.984,106.729c-32.827-51.141-61.621-88.915-109.618-136.673
		c-41.367-41.034-83.93-71.321-83.93-71.321l0.187-0.275v0l-0.187,0.275c-62.959-45.835-122.82-73.658-123.82-73.658l0.186-0.424
		l0,0l-0.186,0.424C896.405-10.569,568.112,24.898,333.228,219.094l-0.602-0.72l0,0l0.602,0.72
		c-77.895,64.514-138.605,136.484-188.892,225.216c-37.85,66.835-59.989,134.205-59.989,135.206l-0.972-0.322l0,0l0.972,0.322
		C59.321,655.92,50.736,720.602,50.736,723.654l-1.024-0.138c0,0,0.487,0.066,1.024,0.138c-7.457,53.266-8.245,99.127-6.341,147.799
		l-1.033,0.05c0,0,0.998-0.048,1.033-0.05c1.669,42.396,9.448,99.376,21.051,146.47l-0.998,0.237c0,0,0.961-0.228,0.998-0.237
		c15.705,63.683,37.747,119.403,48.011,139.93l-0.92,0.41v0l0.92-0.41c31.705,71.249,73.262,128.316,73.262,128.316l-0.805,0.556
		l0,0l0.805-0.556c97.06,137.741,205.081,199.692,210.202,204.813l-0.502,0.737h0l0.502-0.737
		c42.235,28.471,94.074,55.841,150.822,77.985c60.149,23.489,115.173,34.418,118.556,35.264l-0.171,0.741h0l0.171-0.741
		c22.956,4.587,17.353,3.509,33.392,6.265c42.853,7.255,91.131,10.394,111.703,10.394l-0.029,0.675h0l0.029-0.675
		c84.071,1.437,145.077-10.379,145.077-10.379l0.081,0.572l0,0l-0.081-0.572c1-0.133,25.261-4.085,57.841-12.006
		c158.333-38.468,307.691-131.246,414.524-268.294c5.221-6.795,3.359-4.367,7.969-10.393
		C1405.086,1359.567,1381.318,1385.585,1339.405,1423.014z"/>
	<path fill="#D10E1C" d="M958.084,1610.251c-1.049,0.185-1.612,0.26-1.612,0.26l0.081,0.572l0,0l-0.081-0.572
		c-6.95,0-55.253,11.914-145.077,10.379l-0.029,0.675h0l0.029-0.675c-17.975,0-47.463-1.876-86.406-6.567
		c-33.665-4.898-37.689-5.896-58.689-10.092l-0.171,0.741h0l0.171-0.741c0,0-3.566-0.802-13.195-2.973
		c-95.926-22.03-186.218-63.112-256.183-110.276l-0.502,0.737h0l0.502-0.737c-5.238-5.238-113.012-66.887-210.202-204.813
		l-0.805,0.556l0,0l0.805-0.556c0,0-41.552-57.057-73.262-128.316l-0.92,0.41v0l0.92-0.41c-2.552-5.104-28.738-61.779-48.011-139.93
		l-0.998,0.237c0,0,0.961-0.228,0.998-0.237c-11.593-47.054-19.381-104.034-21.051-146.47l-1.033,0.05c0,0,0.998-0.048,1.033-0.05
		c-2.014-51.475-0.719-97.368,6.341-147.799l-1.024-0.138c0,0,0.487,0.066,1.024,0.138c0-1.021,6.831-62.381,33.611-144.139
		l-0.972-0.322l0,0l0.972,0.322c0-1.001,8.752-25.939,21.328-56.356C150.119,415.886,226.34,307.62,333.228,219.094l-0.602-0.72l0,0
		l0.602,0.72C571.124,22.408,900.149-8.779,1159.278,115.125l0.186-0.424l0,0l-0.186,0.424c0.382,0,19.94,9.792,20.281,9.966
		c36.1,18.632,66.802,36.948,103.539,63.693l0.187-0.275v0l-0.187,0.275c0,0,31.757,22.192,75.261,62.882
		c7.419,6.791,29.576,29.462,36.015,36.689c35.451,39.778,52.503,62.045,82.273,108.423
		c-80.558-131.515-190.031-231.709-335.285-297.616C667.169-113.341,124.682,188.971,39.101,698.27
		c-67.781,408.699,182.782,809.621,601.978,911.909c38.881,9.884,104.877,19.125,146.796,20.107
		c60.28,1.984,96.681-0.825,147.11-7.631c86.12-11.77,186.801-46.202,254.014-84.619c98.29-54.731,176.975-121.271,247.807-218.217
		c0,0-1.347,1.76-3.703,4.841C1312.769,1481.279,1148.279,1575.594,958.084,1610.251z M733.369,46.594l0.037,0.263L733.369,46.594
		L733.369,46.594z M1341.138,1425.085l-0.111-0.133L1341.138,1425.085L1341.138,1425.085z"/>
</g>
</svg>
